<?xml version="1.0" encoding="UTF-8" standalone="no"?>
<svg
   viewBox="0 0 1024 768"
   version="1.1"
   stroke-linecap="round"
   stroke-linejoin="round"
   fill-rule="evenodd"
   xml:space="preserve"
   id="svg542"
   sodipodi:docname="ESS연구 verison2-Model.svg"
   inkscape:version="1.4.2 (f4327f4, 2025-05-13)"
   xmlns:inkscape="http://www.inkscape.org/namespaces/inkscape"
   xmlns:sodipodi="http://sodipodi.sourceforge.net/DTD/sodipodi-0.dtd"
   xmlns:xlink="http://www.w3.org/1999/xlink"
   xmlns="http://www.w3.org/2000/svg"
   xmlns:svg="http://www.w3.org/2000/svg"><sodipodi:namedview
   id="namedview542"
   pagecolor="#ffffff"
   bordercolor="#000000"
   borderopacity="0.25"
   inkscape:showpageshadow="2"
   inkscape:pageopacity="0.0"
   inkscape:pagecheckerboard="0"
   inkscape:deskcolor="#d1d1d1"
   inkscape:zoom="2.1015625"
   inkscape:cx="534.12639"
   inkscape:cy="369.01115"
   inkscape:window-width="1920"
   inkscape:window-height="1009"
   inkscape:window-x="1912"
   inkscape:window-y="-8"
   inkscape:window-maximized="1"
   inkscape:current-layer="g386" />
<defs
   id="defs1">
<clipPath
   id="clipId0">
<path
   d="M0,768 1024,768 1024,0 0,0 z"
   id="path1" />
</clipPath>
</defs>
<g
   clip-path="url(#clipId0)"
   fill="none"
   stroke="rgb(0,0,0)"
   stroke-width="0.1"
   id="g1" />
<g
   clip-path="url(#clipId0)"
   fill="rgb(231,230,230)"
   stroke="rgb(231,230,230)"
   stroke-width="0.25"
   fill-opacity="0.498039"
   stroke-opacity="0.498039"
   id="g2">
<path
   d="M10.0392,718.609 1013.96,718.609 1013.96,49.3909 10.0392,49.3909 z"
   id="path2" />
</g>
<g
   clip-path="url(#clipId0)"
   fill="none"
   stroke="rgb(64,64,64)"
   stroke-width="0.35"
   id="g5">
<polyline
   points="193.635,399.205 420.958,399.205 "
   id="polyline2" />
<polyline
   points="421.241,396.939 421.241,401.472 "
   id="polyline3" />
<polyline
   points="585.098,399.205 824.321,399.205 "
   id="polyline4" />
<polyline
   points="585.004,396.939 585.004,401.472 "
   id="polyline5" />
</g>
<g
   clip-path="url(#clipId0)"
   fill="rgb(143,170,220)"
   stroke="rgb(143,170,220)"
   stroke-width="1"
   id="g48">
<path
   d="M558.56,414.458 558.56,409.995 565.265,414.458 z"
   id="path5" />
<path
   d="M565.265,414.458 558.56,409.995 565.265,409.995 z"
   id="path6" />
<path
   d="M565.265,422.706 565.265,409.995 569.728,422.706 z"
   id="path7" />
<path
   d="M569.728,422.706 565.265,409.995 569.728,409.995 z"
   id="path8" />
<path
   d="M569.728,414.458 569.728,409.995 603.641,414.458 z"
   id="path9" />
<path
   d="M603.641,414.458 569.728,409.995 603.641,409.995 z"
   id="path10" />
<path
   d="M603.641,517.172 603.641,512.709 614.635,517.172 z"
   id="path11" />
<path
   d="M614.635,517.172 603.641,512.709 614.635,512.709 z"
   id="path12" />
<path
   d="M603.641,414.458 603.641,409.995 614.635,414.458 z"
   id="path13" />
<path
   d="M614.635,414.458 603.641,409.995 614.635,409.995 z"
   id="path14" />
<path
   d="M614.635,522.075 614.635,503.375 616.146,522.075 z"
   id="path15" />
<path
   d="M616.146,522.075 614.635,503.375 616.146,503.375 z"
   id="path16" />
<path
   d="M614.635,414.458 614.635,409.995 616.146,414.458 z"
   id="path17" />
<path
   d="M616.146,414.458 614.635,409.995 616.146,409.995 z"
   id="path18" />
<path
   d="M616.146,522.075 616.146,503.296 619.098,522.075 z"
   id="path19" />
<path
   d="M619.098,522.075 616.146,503.296 619.098,503.296 z"
   id="path20" />
<path
   d="M616.146,414.458 616.146,409.995 619.098,414.458 z"
   id="path21" />
<path
   d="M619.098,414.458 616.146,409.995 619.098,409.995 z"
   id="path22" />
<path
   d="M619.098,507.759 619.098,503.296 631.989,507.759 z"
   id="path23" />
<path
   d="M631.989,507.759 619.098,503.296 631.989,503.296 z"
   id="path24" />
<path
   d="M619.098,414.458 619.098,409.995 631.989,414.458 z"
   id="path25" />
<path
   d="M631.989,414.458 619.098,409.995 631.989,409.995 z"
   id="path26" />
<path
   d="M631.989,507.759 631.989,403.235 632.02,507.759 z"
   id="path27" />
<path
   d="M632.02,507.759 631.989,403.235 632.02,402.023 z"
   id="path28" />
<path
   d="M632.02,507.759 632.02,402.023 638.12,507.759 z"
   id="path29" />
<path
   d="M638.12,507.759 632.02,402.023 638.12,402.023 z"
   id="path30" />
<path
   d="M638.12,498.503 638.12,494.041 642.008,498.503 z"
   id="path31" />
<path
   d="M642.008,498.503 638.12,494.041 642.008,494.041 z"
   id="path32" />
<path
   d="M638.12,406.485 638.12,402.023 642.008,406.485 z"
   id="path33" />
<path
   d="M642.008,406.485 638.12,402.023 642.008,402.023 z"
   id="path34" />
<path
   d="M642.008,498.503 642.008,494.041 666.334,498.503 z"
   id="path35" />
<path
   d="M666.334,498.503 642.008,494.041 666.334,494.041 z"
   id="path36" />
<path
   d="M642.008,406.485 642.008,402.023 666.334,406.485 z"
   id="path37" />
<path
   d="M666.334,406.485 642.008,402.023 666.334,402.023 z"
   id="path38" />
<path
   d="M642.008,369.031 642.008,360.106 666.334,369.031 z"
   id="path39" />
<path
   d="M666.334,369.031 642.008,360.106 666.334,360.106 z"
   id="path40" />
<path
   d="M666.334,498.503 666.334,494.041 669.097,498.503 z"
   id="path41" />
<path
   d="M669.097,498.503 666.334,494.041 669.097,494.041 z"
   id="path42" />
<path
   d="M666.334,406.485 666.334,360.106 669.097,406.485 z"
   id="path43" />
<path
   d="M669.097,406.485 666.334,360.106 669.097,360.106 z"
   id="path44" />
<path
   d="M669.097,406.485 669.097,360.106 673.024,406.485 z"
   id="path45" />
<path
   d="M673.024,406.485 669.097,360.106 673.024,360.106 z"
   id="path46" />
<path
   d="M673.024,369.031 673.024,360.106 743.384,369.031 z"
   id="path47" />
<path
   d="M743.384,369.031 673.024,360.106 743.384,360.106 z"
   id="path48" />
</g>
<g
   clip-path="url(#clipId0)"
   fill="none"
   stroke="rgb(64,64,64)"
   stroke-width="0.35"
   id="g49">
<polyline
   points="642.008,360.106 743.384,360.106 743.384,369.031 673.024,369.031 673.024,402.023 673.024,404.101 673.024,406.485 638.12,406.485 638.12,494.041 669.097,494.041 669.097,498.503 638.12,498.503 638.12,503.296 638.12,505.004 638.12,507.759 619.098,507.759 619.098,522.075 614.635,522.075 614.635,517.172 603.641,517.172 603.641,512.709 614.635,512.709 614.635,503.375 616.146,503.375 616.146,503.296 631.989,503.296 631.989,414.458 569.728,414.458 569.728,422.706 565.265,422.706 565.265,414.458 558.56,414.458 558.56,409.995 631.989,409.995 631.989,403.235 632.02,403.235 632.02,402.023 666.334,402.023 666.334,369.031 642.008,369.031 642.008,360.106 "
   id="polyline48" />
</g>
<g
   clip-path="url(#clipId0)"
   fill="rgb(143,170,220)"
   stroke="rgb(143,170,220)"
   stroke-width="1"
   id="g88">
<path
   d="M279.105,368.984 279.105,360.106 303.826,368.984 z"
   id="path49" />
<path
   d="M303.826,368.984 279.105,360.106 303.826,360.106 z"
   id="path50" />
<path
   d="M303.826,378.971 303.826,374.516 342.933,378.971 z"
   id="path51" />
<path
   d="M342.933,378.971 303.826,374.516 342.933,374.516 z"
   id="path52" />
<path
   d="M303.826,368.984 303.826,360.106 342.933,368.984 z"
   id="path53" />
<path
   d="M342.933,368.984 303.826,360.106 342.933,360.106 z"
   id="path54" />
<path
   d="M342.933,446.962 342.933,442.499 360.452,446.962 z"
   id="path55" />
<path
   d="M360.452,446.962 342.933,442.499 360.452,442.499 z"
   id="path56" />
<path
   d="M342.933,378.971 342.933,374.516 360.452,378.971 z"
   id="path57" />
<path
   d="M360.452,378.971 342.933,374.516 360.452,374.516 z"
   id="path58" />
<path
   d="M342.933,368.984 342.933,360.106 360.452,368.984 z"
   id="path59" />
<path
   d="M360.452,368.984 342.933,360.106 360.452,360.106 z"
   id="path60" />
<path
   d="M360.452,508.947 360.452,360.106 366.929,508.947 z"
   id="path61" />
<path
   d="M366.929,508.947 360.452,360.106 366.929,360.106 z"
   id="path62" />
<path
   d="M366.929,501.62 366.929,497.158 399.826,501.62 z"
   id="path63" />
<path
   d="M399.826,501.62 366.929,497.158 399.826,497.158 z"
   id="path64" />
<path
   d="M366.929,408.555 366.929,404.093 399.826,408.555 z"
   id="path65" />
<path
   d="M399.826,408.555 366.929,404.093 399.826,404.093 z"
   id="path66" />
<path
   d="M366.929,368.984 366.929,360.106 399.826,368.984 z"
   id="path67" />
<path
   d="M399.826,368.984 366.929,360.106 399.826,360.106 z"
   id="path68" />
<path
   d="M399.826,517.73 399.826,497.158 400.983,517.73 z"
   id="path69" />
<path
   d="M400.983,517.73 399.826,497.158 400.983,497.158 z"
   id="path70" />
<path
   d="M399.826,408.555 399.826,404.093 400.983,408.555 z"
   id="path71" />
<path
   d="M400.983,408.555 399.826,404.093 400.983,404.093 z"
   id="path72" />
<path
   d="M399.826,368.984 399.826,360.106 400.983,368.984 z"
   id="path73" />
<path
   d="M400.983,368.984 399.826,360.106 400.983,360.106 z"
   id="path74" />
<path
   d="M400.983,517.73 400.983,497.158 403.808,517.73 z"
   id="path75" />
<path
   d="M403.808,517.73 400.983,497.158 403.808,497.158 z"
   id="path76" />
<path
   d="M400.983,408.555 400.983,404.093 403.808,408.555 z"
   id="path77" />
<path
   d="M403.808,408.555 400.983,404.093 403.808,404.093 z"
   id="path78" />
<path
   d="M403.808,517.73 403.808,497.158 404.289,517.73 z"
   id="path79" />
<path
   d="M404.289,517.73 403.808,497.158 404.289,497.189 z"
   id="path80" />
<path
   d="M403.808,408.555 403.808,404.093 404.289,408.555 z"
   id="path81" />
<path
   d="M404.289,408.555 403.808,404.093 404.289,404.093 z"
   id="path82" />
<path
   d="M404.289,511.182 404.289,506.72 412.521,511.182 z"
   id="path83" />
<path
   d="M412.521,511.182 404.289,506.72 412.521,506.72 z"
   id="path84" />
<path
   d="M404.289,408.555 404.289,404.093 412.521,408.555 z"
   id="path85" />
<path
   d="M412.521,408.555 404.289,404.093 412.521,404.093 z"
   id="path86" />
<path
   d="M412.521,408.555 412.521,404.093 422.374,408.555 z"
   id="path87" />
<path
   d="M422.374,408.555 412.521,404.093 422.374,404.093 z"
   id="path88" />
</g>
<g
   clip-path="url(#clipId0)"
   fill="none"
   stroke="rgb(64,64,64)"
   stroke-width="0.35"
   id="g91">
<polyline
   points="279.105,360.106 400.983,360.106 400.983,368.984 366.929,368.984 366.929,404.093 422.374,404.093 422.374,408.555 366.929,408.555 366.929,497.158 403.808,497.158 403.808,497.189 404.289,497.189 404.289,506.72 412.521,506.72 412.521,511.182 404.289,511.182 404.289,517.73 399.826,517.73 399.826,501.62 366.929,501.62 366.929,508.947 360.452,508.947 360.452,446.962 342.933,446.962 342.933,442.499 360.452,442.499 360.452,378.971 303.826,378.971 303.826,374.516 360.452,374.516 360.452,368.984 279.105,368.984 279.105,360.106 "
   id="polyline88" />
<polyline
   points="447.874,177.36 574.71,177.36 "
   id="polyline89" />
<polyline
   points="429.552,179.155 429.552,360.106 "
   id="polyline90" />
<polyline
   points="589.254,179.155 589.254,360.106 "
   id="polyline91" />
</g>
<g
   clip-path="url(#clipId0)"
   fill="rgb(38,38,38)"
   stroke="rgb(38,38,38)"
   stroke-width="0"
   id="g92">
<text
   transform="matrix(7.88404 0 -0 7.90963 484.706 168.538)"
   font-family="Arial,'sans-serif'"
   font-size="1.39636"
   id="text91">FUNNEL</text>
</g>
<g
   clip-path="url(#clipId0)"
   fill="none"
   stroke="rgb(64,64,64)"
   stroke-width="0.35"
   id="g96">
<polyline
   points="750.656,239.126 750.656,179.155 "
   id="polyline92" />
<polyline
   points="267.678,179.155 750.467,179.155 "
   id="polyline93" />
<polyline
   points="350.126,154.789 350.126,179.155 "
   id="polyline94" />
<polyline
   points="350.409,155.355 380.662,155.141 409.964,154.536 437.367,153.595 461.918,152.374 472.828,151.677 482.668,150.931 491.321,150.142 498.667,149.319 504.587,148.468 508.963,147.596 511.675,146.71 512.606,145.817 513.537,144.924 516.249,144.037 520.624,143.165 526.544,142.314 533.89,141.491 542.542,140.703 552.382,139.956 563.291,139.259 587.842,138.038 615.244,137.098 644.548,136.492 674.803,136.278 "
   id="polyline95" />
<polyline
   points="674.441,136.372 674.441,179.344 "
   id="polyline96" />
</g>
<g
   clip-path="url(#clipId0)"
   fill="rgb(38,38,38)"
   stroke="rgb(38,38,38)"
   stroke-width="0"
   id="g98">
<text
   transform="matrix(7.89942 0 -0 7.90963 477.156 202.388)"
   font-family="Arial,'sans-serif'"
   font-size="1.39636"
   id="text96">E/R CASING</text>
<text
   transform="matrix(7.89886 0 -0 7.90963 472.616 602.619)"
   font-family="Arial,'sans-serif'"
   font-size="1.39636"
   id="text97">MAIN ENGINE</text>
<text
   transform="matrix(5.6255 0 -0 5.61111 205.548 497.331)"
   font-family="Arial,'sans-serif'"
   font-size="1.39636"
   id="text98">PURIFIER ROOM</text>
<image
   width="1"
   height="1"
   xlink:href="ESS_Hapag%20Lloyd_RHL%20C_Class_HMI%20Design_ER%20VENT_2407094ac3eb7042c848a1b7e7a2760bd47bbc.PNG"
   preserveAspectRatio="none"
   transform="matrix(-34.377 0 -0 40.5157 343.987 492.798)"
   id="image98" />
</g>
<g
   clip-path="url(#clipId0)"
   fill="none"
   stroke="rgb(0,0,0)"
   stroke-width="0.25"
   id="g102">
<polyline
   points="343.987,533.313 309.61,533.313 309.61,492.798 343.987,492.798 343.987,533.313 "
   id="polyline98" />
<image
   width="1"
   height="1"
   xlink:href="ESS_Hapag%20Lloyd_RHL%20C_Class_HMI%20Design_ER%20VENT_240709d3815b3245b4484681519078dbeb1e94.PNG"
   preserveAspectRatio="none"
   transform="matrix(-34.377 0 -0 40.5157 303.755 492.798)"
   id="image99" />
<polyline
   points="303.755,533.313 269.378,533.313 269.378,492.798 303.755,492.798 303.755,533.313 "
   id="polyline99" />
<image
   width="1"
   height="1"
   xlink:href="ESS_Hapag%20Lloyd_RHL%20C_Class_HMI%20Design_ER%20VENT_24070927a171ef759d4083ad6cc564da53837e.PNG"
   preserveAspectRatio="none"
   transform="matrix(-25.405 0 -0 29.8438 264.467 503.47)"
   id="image100" />
<polyline
   points="264.467,533.313 239.062,533.313 239.062,503.47 264.467,503.47 264.467,533.313 "
   id="polyline100" />
<image
   width="1"
   height="1"
   xlink:href="ESS_Hapag%20Lloyd_RHL%20C_Class_HMI%20Design_ER%20VENT_24070960c1851515054f7f8a04915fe8e24d82.PNG"
   preserveAspectRatio="none"
   transform="matrix(-25.405 0 -0 29.8438 233.584 503.47)"
   id="image101" />
<polyline
   points="233.584,533.313 208.179,533.313 208.179,503.47 233.584,503.47 233.584,533.313 "
   id="polyline101" />
<image
   width="1"
   height="1"
   xlink:href="ESS_Hapag%20Lloyd_RHL%20C_Class_HMI%20Design_ER%20VENT_240709c59dcb2fe34244f783b18ec1ce2bb765.PNG"
   preserveAspectRatio="none"
   transform="matrix(50.0544 0 -0 34.9436 212.807 451.999)"
   id="image102" />
<polyline
   points="212.807,486.942 262.861,486.942 262.861,451.999 212.807,451.999 212.807,486.942 "
   id="polyline102" />
</g>
<g
   clip-path="url(#clipId0)"
   fill="rgb(38,38,38)"
   stroke="rgb(38,38,38)"
   stroke-width="0"
   id="g103">
<text
   transform="matrix(5.60926 0 -0 5.61111 223.387 448.98)"
   font-family="Arial,'sans-serif'"
   font-size="1.39636"
   id="text102">No.3 D/G</text>
<image
   width="1"
   height="1"
   xlink:href="ESS_Hapag%20Lloyd_RHL%20C_Class_HMI%20Design_ER%20VENT_24070968e55b4a84c74231bea72d3f03a2d8c5.PNG"
   preserveAspectRatio="none"
   transform="matrix(50.0544 0 -0 34.9436 272.683 451.999)"
   id="image103" />
</g>
<g
   clip-path="url(#clipId0)"
   fill="none"
   stroke="rgb(0,0,0)"
   stroke-width="0.25"
   id="g104">
<polyline
   points="272.683,486.942 322.738,486.942 322.738,451.999 272.683,451.999 272.683,486.942 "
   id="polyline103" />
</g>
<g
   clip-path="url(#clipId0)"
   fill="rgb(38,38,38)"
   stroke="rgb(38,38,38)"
   stroke-width="0"
   id="g106">
<text
   transform="matrix(5.60926 0 -0 5.61111 283.208 448.977)"
   font-family="Arial,'sans-serif'"
   font-size="1.39636"
   id="text104">No.2 D/G</text>
<text
   transform="matrix(5.60973 0 -0 5.61111 280.808 226.644)"
   font-family="Arial,'sans-serif'"
   font-size="1.39636"
   id="text105">E/R FAN</text>
<text
   transform="matrix(5.61461 0 -0 5.61111 287.985 235.145)"
   font-family="Arial,'sans-serif'"
   font-size="1.39636"
   id="text106">No.4</text>
</g>
<g
   clip-path="url(#clipId0)"
   fill="none"
   stroke="rgb(64,64,64)"
   stroke-width="0.35"
   id="g107">
<polyline
   points="267.678,216.271 381.764,216.271 381.764,359.539 "
   id="polyline106" />
</g>
<g
   clip-path="url(#clipId0)"
   fill="rgb(38,38,38)"
   stroke="rgb(38,38,38)"
   stroke-width="0"
   id="g110">
<text
   transform="matrix(5.60973 0 -0 5.61111 336.852 226.644)"
   font-family="Arial,'sans-serif'"
   font-size="1.39636"
   id="text107">E/R FAN</text>
<text
   transform="matrix(5.61479 0 -0 5.61111 344.028 235.147)"
   font-family="Arial,'sans-serif'"
   font-size="1.39636"
   id="text108">No.3</text>
<text
   transform="matrix(7.84487 0 -0 7.90963 662.467 194.376)"
   font-family="Arial,'sans-serif'"
   font-size="1.39636"
   id="text109">M/E T/C</text>
<text
   transform="matrix(7.88182 0 -0 7.90963 635.831 206.276)"
   font-family="Arial,'sans-serif'"
   font-size="1.39636"
   id="text110">DIRECT SUCTION</text>
</g>
<g
   clip-path="url(#clipId0)"
   fill="none"
   stroke="rgb(64,64,64)"
   stroke-width="0.35"
   id="g111">
<polyline
   points="750.278,215.704 635.719,215.704 635.719,360.484 "
   id="polyline110" />
</g>
<g
   clip-path="url(#clipId0)"
   fill="rgb(38,38,38)"
   stroke="rgb(38,38,38)"
   stroke-width="0"
   id="g114">
<text
   transform="matrix(5.60973 0 -0 5.61111 650.55 229.508)"
   font-family="Arial,'sans-serif'"
   font-size="1.39636"
   id="text111">E/R FAN</text>
<text
   transform="matrix(5.61636 0 -0 5.61111 657.726 238.01)"
   font-family="Arial,'sans-serif'"
   font-size="1.39636"
   id="text112">No.2</text>
<text
   transform="matrix(5.60973 0 -0 5.61111 706.593 229.508)"
   font-family="Arial,'sans-serif'"
   font-size="1.39636"
   id="text113">E/R FAN</text>
<text
   transform="matrix(5.61497 0 -0 5.61111 713.77 238.01)"
   font-family="Arial,'sans-serif'"
   font-size="1.39636"
   id="text114">No.1</text>
<image
   width="1"
   height="1"
   xlink:href="ESS_Hapag%20Lloyd_RHL%20C_Class_HMI%20Design_ER%20VENT_2407099a204d988776466abedf146388680849.PNG"
   preserveAspectRatio="none"
   transform="matrix(50.0544 0 -0 34.9436 736.867 451.999)"
   id="image114" />
</g>
<g
   clip-path="url(#clipId0)"
   fill="none"
   stroke="rgb(0,0,0)"
   stroke-width="0.25"
   id="g115">
<polyline
   points="736.867,486.942 786.922,486.942 786.922,451.999 736.867,451.999 736.867,486.942 "
   id="polyline114" />
</g>
<g
   clip-path="url(#clipId0)"
   fill="rgb(38,38,38)"
   stroke="rgb(38,38,38)"
   stroke-width="0"
   id="g130">
<text
   transform="matrix(5.60926 0 -0 5.61111 747.431 450.189)"
   font-family="Arial,'sans-serif'"
   font-size="1.39636"
   id="text115">No.1 D/G</text>
<text
   transform="matrix(5.61753 0 -0 5.61111 683.427 450.189)"
   font-family="Arial,'sans-serif'"
   font-size="1.39636"
   id="text116">Turbo GEN</text>
<text
   transform="matrix(6.78186 0 -0 6.77389 755.752 183.499)"
   font-family="Arial,'sans-serif'"
   font-size="1.39636"
   id="text117">C</text>
<text
   transform="matrix(6.77779 0 -0 6.77389 762.558 183.499)"
   font-family="Arial,'sans-serif'"
   font-size="1.39636"
   id="text118">-</text>
<text
   transform="matrix(6.76321 0 -0 6.77389 765.672 183.499)"
   font-family="Arial,'sans-serif'"
   font-size="1.39636"
   id="text119">DK</text>
<text
   transform="matrix(6.78124 0 -0 6.76037 755.742 311.846)"
   font-family="Arial,'sans-serif'"
   font-size="1.39636"
   id="text120">A</text>
<text
   transform="matrix(6.76426 0 -0 6.76037 762.085 311.846)"
   font-family="Arial,'sans-serif'"
   font-size="1.39636"
   id="text121">-</text>
<text
   transform="matrix(6.75712 0 -0 6.76037 765.199 311.846)"
   font-family="Arial,'sans-serif'"
   font-size="1.39636"
   id="text122">DK</text>
<text
   transform="matrix(6.76141 0 -0 6.76037 755.758 248.153)"
   font-family="Arial,'sans-serif'"
   font-size="1.39636"
   id="text123">B</text>
<text
   transform="matrix(6.76426 0 -0 6.76037 762.085 248.153)"
   font-family="Arial,'sans-serif'"
   font-size="1.39636"
   id="text124">-</text>
<text
   transform="matrix(6.76642 0 -0 6.76037 765.198 248.153)"
   font-family="Arial,'sans-serif'"
   font-size="1.39636"
   id="text125">D</text>
<text
   transform="matrix(6.73658 0 -0 6.76037 787.301 356.345)"
   font-family="Arial,'sans-serif'"
   font-size="1.39636"
   id="text126">UPP DK</text>
<text
   transform="matrix(6.77556 0 -0 6.76037 766.936 396.105)"
   font-family="Arial,'sans-serif'"
   font-size="1.39636"
   id="text127">RECESS DK</text>
<text
   transform="matrix(6.74943 0 -0 6.76037 786.975 485.546)"
   font-family="Arial,'sans-serif'"
   font-size="1.39636"
   id="text128">3RD DK</text>
<text
   transform="matrix(6.7681 0 -0 6.76037 787.919 529.575)"
   font-family="Arial,'sans-serif'"
   font-size="1.39636"
   id="text129">4TH DK</text>
<text
   transform="matrix(6.77852 0 -0 6.76037 788.955 557.129)"
   font-family="Arial,'sans-serif'"
   font-size="1.39636"
   id="text130">FLOOR</text>
</g>
<g
   clip-path="url(#clipId0)"
   fill="rgb(64,64,64)"
   stroke="rgb(64,64,64)"
   stroke-width="1"
   id="g160">
<path
   d="M363.238,521.429 362.057,515.527 363.238,515.527 z"
   id="path130" />
<path
   d="M363.238,521.429 363.238,516.314 363.631,523.397 z"
   id="path131" />
<path
   d="M363.631,523.397 363.238,516.314 363.631,516.314 z"
   id="path132" />
<path
   d="M363.238,515.527 363.238,508.947 363.631,515.527 z"
   id="path133" />
<path
   d="M363.631,515.527 363.238,508.947 363.631,508.947 z"
   id="path134" />
<path
   d="M363.631,523.397 363.631,516.314 364.025,521.429 z"
   id="path135" />
<path
   d="M364.025,521.429 363.631,516.314 364.025,516.314 z"
   id="path136" />
<path
   d="M363.631,515.527 363.631,508.947 364.025,515.527 z"
   id="path137" />
<path
   d="M364.025,515.527 363.631,508.947 364.025,508.947 z"
   id="path138" />
<path
   d="M364.025,521.429 364.025,515.527 365.205,515.527 z"
   id="path139" />
<path
   d="M412.08,509.435 412.08,508.648 418.66,509.435 z"
   id="path140" />
<path
   d="M418.66,509.435 412.08,508.648 418.66,508.648 z"
   id="path141" />
<path
   d="M418.66,510.616 418.66,509.435 419.447,510.458 z"
   id="path142" />
<path
   d="M419.447,510.458 418.66,509.435 419.447,509.435 z"
   id="path143" />
<path
   d="M418.66,508.648 418.66,507.468 419.447,508.648 z"
   id="path144" />
<path
   d="M419.447,508.648 418.66,507.468 419.447,507.625 z"
   id="path145" />
<path
   d="M419.447,510.458 419.447,507.625 426.53,509.042 z"
   id="path146" />
<path
   d="M595.959,515.936 588.876,514.519 595.959,513.103 z"
   id="path147" />
<path
   d="M595.959,515.936 595.959,514.913 596.746,516.093 z"
   id="path148" />
<path
   d="M596.746,516.093 595.959,514.913 596.746,514.913 z"
   id="path149" />
<path
   d="M595.959,514.126 595.959,513.103 596.746,514.126 z"
   id="path150" />
<path
   d="M596.746,514.126 595.959,513.103 596.746,512.945 z"
   id="path151" />
<path
   d="M596.746,514.913 596.746,514.126 603.42,514.913 z"
   id="path152" />
<path
   d="M603.42,514.913 596.746,514.126 603.42,514.126 z"
   id="path153" />
<path
   d="M669.058,496.78 669.058,495.993 675.731,496.78 z"
   id="path154" />
<path
   d="M675.731,496.78 669.058,495.993 675.731,495.993 z"
   id="path155" />
<path
   d="M675.731,497.96 675.731,496.78 676.518,497.803 z"
   id="path156" />
<path
   d="M676.518,497.803 675.731,496.78 676.518,496.78 z"
   id="path157" />
<path
   d="M675.731,495.993 675.731,494.812 676.518,495.993 z"
   id="path158" />
<path
   d="M676.518,495.993 675.731,494.812 676.518,494.97 z"
   id="path159" />
<path
   d="M676.518,497.803 676.518,494.97 683.602,496.386 z"
   id="path160" />
</g>
<g
   clip-path="url(#clipId0)"
   fill="none"
   stroke="rgb(64,64,64)"
   stroke-width="0.35"
   id="g173">
<polyline
   points="374.87,480.331 374.87,488.453 "
   id="polyline160" />
<polyline
   points="372.698,479.953 377.231,479.953 "
   id="polyline161" />
<polyline
   points="352.676,524.625 352.676,532.747 "
   id="polyline162" />
<polyline
   points="350.504,524.247 354.942,524.247 "
   id="polyline163" />
<polyline
   points="352.676,496.764 352.676,488.642 "
   id="polyline164" />
<polyline
   points="350.504,497.048 354.942,497.048 "
   id="polyline165" />
<polyline
   points="193.729,488.359 420.958,488.359 "
   id="polyline166" />
<polyline
   points="421.241,486.281 421.241,490.72 "
   id="polyline167" />
<polyline
   points="193.729,532.841 420.958,532.841 "
   id="polyline168" />
<polyline
   points="421.241,530.669 421.241,535.202 "
   id="polyline169" />
<polyline
   points="587.743,532.841 824.321,532.841 "
   id="polyline170" />
<polyline
   points="587.648,530.669 587.648,535.202 "
   id="polyline171" />
<polyline
   points="622.592,480.142 622.592,488.264 "
   id="polyline172" />
<polyline
   points="620.42,479.859 624.859,479.859 "
   id="polyline173" />
<image
   width="1"
   height="1"
   xlink:href="ESS_Hapag%20Lloyd_RHL%20C_Class_HMI%20Design_ER%20VENT_240709e4aad4b89b274b45b93a2b35febbaae3.PNG"
   preserveAspectRatio="none"
   transform="matrix(53.0766 0 -0 35.0381 677.935 452.471)"
   id="image173" />
</g>
<g
   clip-path="url(#clipId0)"
   fill="none"
   stroke="rgb(0,0,0)"
   stroke-width="0.25"
   id="g174">
<polyline
   points="677.935,487.509 731.012,487.509 731.012,452.471 677.935,452.471 677.935,487.509 "
   id="polyline174" />
</g>
<g
   clip-path="url(#clipId0)"
   fill="none"
   stroke="rgb(64,64,64)"
   stroke-width="0.35"
   id="g203">
<polyline
   points="748.389,236.953 751.978,245.548 "
   id="polyline175" />
<polyline
   points="748.389,242.431 751.978,251.025 "
   id="polyline176" />
<polyline
   points="748.389,247.909 751.978,256.503 "
   id="polyline177" />
<polyline
   points="748.389,253.386 751.978,262.075 "
   id="polyline178" />
<polyline
   points="748.389,258.864 751.978,267.553 "
   id="polyline179" />
<polyline
   points="748.389,264.342 751.978,273.03 "
   id="polyline180" />
<polyline
   points="748.389,311.279 751.978,319.968 "
   id="polyline181" />
<polyline
   points="748.389,316.757 751.978,325.446 "
   id="polyline182" />
<polyline
   points="748.389,322.329 751.978,330.923 "
   id="polyline183" />
<polyline
   points="748.389,327.807 751.978,336.401 "
   id="polyline184" />
<polyline
   points="748.389,333.285 751.978,341.879 "
   id="polyline185" />
<polyline
   points="748.389,338.762 751.978,347.451 "
   id="polyline186" />
<polyline
   points="751.128,315.34 751.128,271.991 "
   id="polyline187" />
<polyline
   points="750.183,360.201 750.183,342.918 "
   id="polyline188" />
<polyline
   points="267.583,238.087 267.583,179.155 "
   id="polyline189" />
<polyline
   points="269.661,235.915 266.072,244.603 "
   id="polyline190" />
<polyline
   points="269.661,241.392 266.072,250.081 "
   id="polyline191" />
<polyline
   points="269.661,246.964 266.167,255.559 "
   id="polyline192" />
<polyline
   points="269.661,252.442 266.072,261.036 "
   id="polyline193" />
<polyline
   points="269.661,257.92 266.072,266.514 "
   id="polyline194" />
<polyline
   points="269.661,263.397 266.072,272.086 "
   id="polyline195" />
<polyline
   points="269.85,311.279 266.261,319.968 "
   id="polyline196" />
<polyline
   points="269.85,316.757 266.261,325.446 "
   id="polyline197" />
<polyline
   points="269.85,322.329 266.261,330.923 "
   id="polyline198" />
<polyline
   points="269.85,327.807 266.261,336.401 "
   id="polyline199" />
<polyline
   points="269.85,333.285 266.261,341.879 "
   id="polyline200" />
<polyline
   points="269.85,338.762 266.261,347.451 "
   id="polyline201" />
<polyline
   points="267.678,329.885 267.678,269.63 "
   id="polyline202" />
<polyline
   points="268.056,360.201 268.056,342.918 "
   id="polyline203" />
<image
   width="1"
   height="1"
   xlink:href="ESS_Hapag%20Lloyd_RHL%20C_Class_HMI%20Design_ER%20VENT_2407095a7514ccd7c44bbc87aa0953e1750c94.PNG"
   preserveAspectRatio="none"
   transform="matrix(36.3603 0 -0 42.5935 278.822 270.386)"
   id="image203" />
</g>
<g
   clip-path="url(#clipId0)"
   fill="none"
   stroke="rgb(0,0,0)"
   stroke-width="0.25"
   id="g207">
<polyline
   points="278.822,312.979 315.182,312.979 315.182,270.386 278.822,270.386 278.822,312.979 "
   id="polyline204" />
<image
   width="1"
   height="1"
   xlink:href="ESS_Hapag%20Lloyd_RHL%20C_Class_HMI%20Design_ER%20VENT_2407094f2f9ee5e65d4979a76acb672dfacce9.PNG"
   preserveAspectRatio="none"
   transform="matrix(36.4547 0 -0 42.5935 334.449 270.386)"
   id="image204" />
<polyline
   points="334.449,312.979 370.903,312.979 370.903,270.386 334.449,270.386 334.449,312.979 "
   id="polyline205" />
<image
   width="1"
   height="1"
   xlink:href="ESS_Hapag%20Lloyd_RHL%20C_Class_HMI%20Design_ER%20VENT_240709a67590d5b1bd4b279526d40f9234dbdd.PNG"
   preserveAspectRatio="none"
   transform="matrix(36.3603 0 -0 42.5935 648.469 269.725)"
   id="image205" />
<polyline
   points="648.469,312.318 684.829,312.318 684.829,269.725 648.469,269.725 648.469,312.318 "
   id="polyline206" />
<image
   width="1"
   height="1"
   xlink:href="ESS_Hapag%20Lloyd_RHL%20C_Class_HMI%20Design_ER%20VENT_240709a6f6f06d8d8f48018a8af00e3420570d.PNG"
   preserveAspectRatio="none"
   transform="matrix(36.4547 0 -0 42.5935 704.096 269.725)"
   id="image206" />
<polyline
   points="704.096,312.318 740.55,312.318 740.55,269.725 704.096,269.725 704.096,312.318 "
   id="polyline207" />
</g>
<g
   clip-path="url(#clipId0)"
   fill="none"
   stroke="rgb(64,64,64)"
   stroke-width="0.35"
   id="g211">
<polyline
   points="773.385,609.528 244.571,609.528 "
   id="polyline208" />
<polyline
   points="244.571,609.528 234.306,608.493 224.746,605.525 216.094,600.828 208.555,594.608 202.335,587.07 197.638,578.418 194.67,568.857 193.635,558.592 "
   id="polyline209" />
<polyline
   points="193.635,558.592 193.635,360.106 824.321,360.106 824.321,558.592 "
   id="polyline210" />
<polyline
   points="824.321,558.592 823.286,568.857 820.317,578.418 815.621,587.07 809.401,594.608 801.862,600.828 793.21,605.525 783.649,608.493 773.385,609.528 "
   id="polyline211" />
</g>
<g
   clip-path="url(#clipId0)"
   fill="rgb(217,217,217)"
   stroke="rgb(217,217,217)"
   stroke-width="0.25"
   fill-opacity="0.498039"
   stroke-opacity="0.498039"
   id="g212">
<path
   d="M443.152,361.523 574.804,361.523 574.804,357.651 443.152,357.651 z"
   id="path211" />
</g>
<g
   clip-path="url(#clipId0)"
   fill="none"
   stroke="rgb(64,64,64)"
   stroke-width="0.35"
   id="g213">
<polyline
   points="443.057,362.278 443.057,357.84 "
   id="polyline212" />
<polyline
   points="574.71,362.278 574.71,357.84 "
   id="polyline213" />
</g>
<g
   clip-path="url(#clipId0)"
   fill="rgb(217,217,217)"
   stroke="rgb(217,217,217)"
   stroke-width="0.25"
   fill-opacity="0.498039"
   stroke-opacity="0.498039"
   id="g214">
<path
   d="M443.152,180.76 574.804,180.76 574.804,176.983 443.152,176.983 z"
   id="path213" />
</g>
<g
   clip-path="url(#clipId0)"
   fill="none"
   stroke="rgb(64,64,64)"
   stroke-width="0.35"
   id="g216">
<polyline
   points="443.057,181.61 443.057,177.077 "
   id="polyline214" />
<polyline
   points="574.71,181.61 574.71,177.077 "
   id="polyline215" />
<polyline
   points="395.08,309.107 395.8,305.541 397.763,302.629 400.675,300.666 404.241,299.946 407.808,300.666 410.72,302.629 412.683,305.541 413.402,309.107 412.683,312.674 410.72,315.585 407.808,317.548 404.241,318.268 400.675,317.548 397.763,315.585 395.8,312.674 395.08,309.107 "
   id="polyline216" />
</g>
<g
   clip-path="url(#clipId0)"
   fill="rgb(0,0,0)"
   stroke="rgb(0,0,0)"
   stroke-width="0"
   id="g217">
<text
   transform="matrix(5.00482 0 -0 5.07028 397.875 311.807)"
   font-family="Arial,'sans-serif'"
   font-size="1.39636"
   id="text216">TX7</text>
</g>
<g
   clip-path="url(#clipId0)"
   fill="none"
   stroke="rgb(64,64,64)"
   stroke-width="0.35"
   id="g218">
<polyline
   points="382.047,308.824 395.08,308.824 "
   id="polyline217" />
</g>
<g
   clip-path="url(#clipId0)"
   fill="rgb(38,38,38)"
   stroke="rgb(38,38,38)"
   stroke-width="0"
   id="g219">
<text
   transform="matrix(4.52618 0 -0 4.52945 384.883 326.241)"
   font-family="Arial,'sans-serif'"
   font-size="1.39636"
   id="text218">E/R OUTSIDE</text>
<text
   transform="matrix(4.52181 0 -0 4.52945 384.88 333.041)"
   font-family="Arial,'sans-serif'"
   font-size="1.39636"
   id="text219">TEMP</text>
</g>
<g
   clip-path="url(#clipId0)"
   fill="none"
   stroke="rgb(64,64,64)"
   stroke-width="0.35"
   id="g220">
<polyline
   points="438.902,309.485 439.621,305.919 441.584,303.007 444.496,301.044 448.063,300.324 451.629,301.044 454.541,303.007 456.504,305.919 457.223,309.485 456.504,313.051 454.541,315.963 451.629,317.926 448.063,318.646 444.496,317.926 441.584,315.963 439.621,313.051 438.902,309.485 "
   id="polyline219" />
</g>
<g
   clip-path="url(#clipId0)"
   fill="rgb(0,0,0)"
   stroke="rgb(0,0,0)"
   stroke-width="0"
   id="g221">
<text
   transform="matrix(5.00139 0 -0 5.07028 441.752 312.169)"
   font-family="Arial,'sans-serif'"
   font-size="1.39636"
   id="text220">TX6</text>
</g>
<g
   clip-path="url(#clipId0)"
   fill="rgb(38,38,38)"
   stroke="rgb(38,38,38)"
   stroke-width="0"
   id="g222">
<text
   transform="matrix(4.52921 0 -0 4.52945 436.936 327.508)"
   font-family="Arial,'sans-serif'"
   font-size="1.39636"
   id="text221">E/R INSIDE</text>
<text
   transform="matrix(4.52181 0 -0 4.52945 436.933 334.308)"
   font-family="Arial,'sans-serif'"
   font-size="1.39636"
   id="text222">TEMP</text>
</g>
<g
   clip-path="url(#clipId0)"
   fill="none"
   stroke="rgb(64,64,64)"
   stroke-width="0.35"
   id="g223">
<polyline
   points="438.713,256.881 439.433,253.314 441.396,250.403 444.307,248.44 447.874,247.72 451.44,248.44 454.352,250.403 456.315,253.314 457.035,256.881 456.315,260.447 454.352,263.359 451.44,265.322 447.874,266.042 444.307,265.322 441.396,263.359 439.433,260.447 438.713,256.881 "
   id="polyline222" />
</g>
<g
   clip-path="url(#clipId0)"
   fill="rgb(0,0,0)"
   stroke="rgb(0,0,0)"
   stroke-width="0"
   id="g224">
<text
   transform="matrix(4.485 0 -0 4.52945 439.811 259.281)"
   font-family="Arial,'sans-serif'"
   font-size="1.39636"
   id="text223">DPX2</text>
</g>
<g
   clip-path="url(#clipId0)"
   fill="rgb(38,38,38)"
   stroke="rgb(38,38,38)"
   stroke-width="0"
   id="g226">
<text
   transform="matrix(4.52517 0 -0 4.54297 436.923 274.691)"
   font-family="Arial,'sans-serif'"
   font-size="1.39636"
   id="text224">E/R IN/OUT</text>
<text
   transform="matrix(4.53381 0 -0 4.52945 436.917 281.514)"
   font-family="Arial,'sans-serif'"
   font-size="1.39636"
   id="text225">DIFFEREMTIAL</text>
<text
   transform="matrix(4.53143 0 -0 4.52945 436.917 288.315)"
   font-family="Arial,'sans-serif'"
   font-size="1.39636"
   id="text226">PRESSURE</text>
</g>
<g
   clip-path="url(#clipId0)"
   fill="none"
   stroke="rgb(64,64,64)"
   stroke-width="0.35"
   id="g230">
<polyline
   points="192.974,438.682 420.958,438.682 "
   id="polyline226" />
<polyline
   points="420.769,436.416 420.769,440.949 "
   id="polyline227" />
<polyline
   points="374.87,446.804 374.87,438.682 "
   id="polyline228" />
<polyline
   points="372.698,447.088 377.231,447.088 "
   id="polyline229" />
<polyline
   points="614.47,438.777 824.321,438.777 "
   id="polyline230" />
</g>
<g
   clip-path="url(#clipId0)"
   fill="rgb(38,38,38)"
   stroke="rgb(38,38,38)"
   stroke-width="0"
   id="g231">
<text
   transform="matrix(6.74821 0 -0 6.76037 786.981 435.605)"
   font-family="Arial,'sans-serif'"
   font-size="1.39636"
   id="text230">2ND DK</text>
</g>
<g
   clip-path="url(#clipId0)"
   fill="none"
   stroke="rgb(64,64,64)"
   stroke-width="0.35"
   id="g232">
<polyline
   points="622.592,446.899 622.592,438.777 "
   id="polyline231" />
<polyline
   points="620.42,447.182 624.859,447.182 "
   id="polyline232" />
<image
   width="1"
   height="1"
   xlink:href="ESS_Hapag%20Lloyd_RHL%20C_Class_HMI%20Design_ER%20VENT_2407092c5e058b2f8d41d583ea1836b9a4f46f.PNG"
   preserveAspectRatio="none"
   transform="matrix(25.5939 0 -0 32.2048 249.545 366.528)"
   id="image232" />
</g>
<g
   clip-path="url(#clipId0)"
   fill="none"
   stroke="rgb(0,0,0)"
   stroke-width="0.25"
   id="g233">
<polyline
   points="249.545,398.733 275.139,398.733 275.139,366.528 249.545,366.528 249.545,398.733 "
   id="polyline233" />
</g>
<g
   clip-path="url(#clipId0)"
   fill="rgb(64,64,64)"
   stroke="rgb(64,64,64)"
   stroke-width="1"
   id="g249">
<path
   d="M551.477,413.466 544.394,412.049 551.477,410.633 z"
   id="path233" />
<path
   d="M551.477,413.466 551.477,412.443 552.264,413.623 z"
   id="path234" />
<path
   d="M552.264,413.623 551.477,412.443 552.264,412.443 z"
   id="path235" />
<path
   d="M551.477,411.656 551.477,410.633 552.264,411.656 z"
   id="path236" />
<path
   d="M552.264,411.656 551.477,410.633 552.264,410.475 z"
   id="path237" />
<path
   d="M552.264,412.443 552.264,411.656 558.843,412.443 z"
   id="path238" />
<path
   d="M558.843,412.443 552.264,411.656 558.843,411.656 z"
   id="path239" />
<path
   d="M567.044,435.204 565.864,429.301 567.044,429.301 z"
   id="path240" />
<path
   d="M567.044,435.204 567.044,430.088 567.438,437.171 z"
   id="path241" />
<path
   d="M567.438,437.171 567.044,430.088 567.438,430.088 z"
   id="path242" />
<path
   d="M567.044,429.301 567.044,422.721 567.438,429.301 z"
   id="path243" />
<path
   d="M567.438,429.301 567.044,422.721 567.438,422.721 z"
   id="path244" />
<path
   d="M567.438,437.171 567.438,430.088 567.831,435.204 z"
   id="path245" />
<path
   d="M567.831,435.204 567.438,430.088 567.831,430.088 z"
   id="path246" />
<path
   d="M567.438,429.301 567.438,422.721 567.831,429.301 z"
   id="path247" />
<path
   d="M567.831,429.301 567.438,422.721 567.831,422.721 z"
   id="path248" />
<path
   d="M567.831,435.204 567.831,429.301 569.012,429.301 z"
   id="path249" />
</g>
<g
   clip-path="url(#clipId0)"
   fill="none"
   stroke="rgb(64,64,64)"
   stroke-width="0.35"
   id="g250">
<polyline
   points="587.648,488.359 824.321,488.359 "
   id="polyline249" />
<polyline
   points="587.648,486.281 587.648,490.72 "
   id="polyline250" />
</g>
<g
   clip-path="url(#clipId0)"
   fill="rgb(244,177,131)"
   stroke="rgb(244,177,131)"
   stroke-width="1"
   id="g264">
<path
   d="M508.954,520.564 503.689,515.298 508.954,510.037 z"
   id="path250" />
<path
   d="M508.954,520.564 508.954,510.037 568.941,460.62 z"
   id="path251" />
<path
   d="M568.941,460.62 508.954,510.037 568.941,450.094 z"
   id="path252" />
<path
   d="M568.941,460.62 568.941,449.842 574.175,455.391 z"
   id="path253" />
<path
   d="M574.175,455.391 568.941,449.842 574.175,449.842 z"
   id="path254" />
<path
   d="M574.175,455.391 574.175,449.842 599.957,455.391 z"
   id="path255" />
<path
   d="M599.957,455.391 574.175,449.842 599.957,449.842 z"
   id="path256" />
<path
   d="M599.957,455.391 599.957,449.842 600.044,455.391 z"
   id="path257" />
<path
   d="M600.044,455.391 599.957,449.842 600.044,449.842 z"
   id="path258" />
<path
   d="M599.957,433.039 599.957,360.106 600.044,433.039 z"
   id="path259" />
<path
   d="M600.044,433.039 599.957,360.106 600.044,360.106 z"
   id="path260" />
<path
   d="M600.044,455.391 600.044,360.106 605.584,455.391 z"
   id="path261" />
<path
   d="M605.584,455.391 600.044,360.106 605.584,360.106 z"
   id="path262" />
<path
   d="M605.584,455.391 605.584,369.81 605.592,455.391 z"
   id="path263" />
<path
   d="M605.592,455.391 605.584,369.81 605.592,452.778 z"
   id="path264" />
</g>
<g
   clip-path="url(#clipId0)"
   fill="none"
   stroke="rgb(64,64,64)"
   stroke-width="0.35"
   id="g265">
<polyline
   points="599.957,360.106 605.584,360.106 605.584,369.81 605.592,369.81 605.592,452.778 605.592,455.391 574.175,455.391 508.954,520.564 503.689,515.298 568.941,450.094 568.941,449.842 600.044,449.842 600.044,433.039 599.957,433.039 599.957,360.106 "
   id="polyline264" />
</g>
<g
   clip-path="url(#clipId0)"
   fill="rgb(244,177,131)"
   stroke="rgb(244,177,131)"
   stroke-width="1"
   id="g280">
<path
   d="M523.876,520.469 518.611,515.204 523.876,509.94 z"
   id="path265" />
<path
   d="M523.876,520.469 523.876,509.94 574.946,469.399 z"
   id="path266" />
<path
   d="M574.946,469.399 523.876,509.94 574.946,458.877 z"
   id="path267" />
<path
   d="M574.946,469.399 574.946,458.751 580.046,464.3 z"
   id="path268" />
<path
   d="M580.046,464.3 574.946,458.751 580.046,458.751 z"
   id="path269" />
<path
   d="M580.046,464.3 580.046,458.751 608.835,464.3 z"
   id="path270" />
<path
   d="M608.835,464.3 580.046,458.751 608.835,458.751 z"
   id="path271" />
<path
   d="M608.835,464.3 608.835,458.751 608.921,464.3 z"
   id="path272" />
<path
   d="M608.921,464.3 608.835,458.751 608.921,458.751 z"
   id="path273" />
<path
   d="M608.835,433.063 608.835,360.106 608.921,433.063 z"
   id="path274" />
<path
   d="M608.921,433.063 608.835,360.106 608.921,360.106 z"
   id="path275" />
<path
   d="M608.921,464.3 608.921,360.106 614.36,464.3 z"
   id="path276" />
<path
   d="M614.36,464.3 608.921,360.106 614.36,360.106 z"
   id="path277" />
<path
   d="M614.36,460.994 614.36,360.106 614.462,460.994 z"
   id="path278" />
<path
   d="M614.462,460.994 614.36,360.106 614.462,360.106 z"
   id="path279" />
<path
   d="M614.462,460.994 614.462,369.81 614.47,460.994 z"
   id="path280" />
</g>
<g
   clip-path="url(#clipId0)"
   fill="none"
   stroke="rgb(64,64,64)"
   stroke-width="0.35"
   id="g281">
<polyline
   points="608.835,360.106 614.462,360.106 614.462,369.81 614.47,369.81 614.47,460.994 614.36,460.994 614.36,464.3 580.046,464.3 523.876,520.469 518.611,515.204 574.946,458.877 574.946,458.751 608.921,458.751 608.921,433.063 608.835,433.063 608.835,360.106 "
   id="polyline280" />
</g>
<g
   clip-path="url(#clipId0)"
   fill="rgb(244,177,131)"
   stroke="rgb(244,177,131)"
   stroke-width="1"
   id="g295">
<path
   d="M494.379,520.304 489.114,515.039 494.379,509.774 z"
   id="path281" />
<path
   d="M494.379,520.304 494.379,509.774 563.085,451.597 z"
   id="path282" />
<path
   d="M563.085,451.597 494.379,509.774 563.085,441.067 z"
   id="path283" />
<path
   d="M563.085,451.597 563.085,440.964 568.17,446.513 z"
   id="path284" />
<path
   d="M568.17,446.513 563.085,440.964 568.17,440.964 z"
   id="path285" />
<path
   d="M568.17,446.513 568.17,440.964 591.095,446.513 z"
   id="path286" />
<path
   d="M591.095,446.513 568.17,440.964 591.095,440.964 z"
   id="path287" />
<path
   d="M591.095,446.513 591.095,440.964 591.158,446.513 z"
   id="path288" />
<path
   d="M591.158,446.513 591.095,440.964 591.158,440.964 z"
   id="path289" />
<path
   d="M591.095,433.031 591.095,360.067 591.158,433.031 z"
   id="path290" />
<path
   d="M591.158,433.031 591.095,360.067 591.158,360.067 z"
   id="path291" />
<path
   d="M591.158,446.513 591.158,360.067 596.707,446.513 z"
   id="path292" />
<path
   d="M596.707,446.513 591.158,360.067 596.707,360.067 z"
   id="path293" />
<path
   d="M596.707,442.735 596.707,360.067 596.723,433.031 z"
   id="path294" />
<path
   d="M596.723,433.031 596.707,360.067 596.723,360.067 z"
   id="path295" />
</g>
<g
   clip-path="url(#clipId0)"
   fill="none"
   stroke="rgb(64,64,64)"
   stroke-width="0.35"
   id="g296">
<polyline
   points="591.095,360.067 596.723,360.067 596.723,433.031 596.707,433.031 596.707,442.735 596.707,446.513 568.17,446.513 494.379,520.304 489.114,515.039 563.085,441.067 563.085,440.964 591.158,440.964 591.158,433.031 591.095,433.031 591.095,360.067 "
   id="polyline295" />
</g>
<g
   clip-path="url(#clipId0)"
   fill="rgb(64,64,64)"
   stroke="rgb(64,64,64)"
   stroke-width="1"
   id="g329">
<path
   d="M335.582,446.049 328.499,444.632 335.582,443.215 z"
   id="path296" />
<path
   d="M335.582,446.049 335.582,445.026 336.369,446.206 z"
   id="path297" />
<path
   d="M336.369,446.206 335.582,445.026 336.369,445.026 z"
   id="path298" />
<path
   d="M335.582,444.238 335.582,443.215 336.369,444.238 z"
   id="path299" />
<path
   d="M336.369,444.238 335.582,443.215 336.369,443.058 z"
   id="path300" />
<path
   d="M336.369,445.026 336.369,444.238 342.948,445.026 z"
   id="path301" />
<path
   d="M342.948,445.026 336.369,444.238 342.948,444.238 z"
   id="path302" />
<path
   d="M421.902,406.304 421.902,405.517 428.482,406.304 z"
   id="path303" />
<path
   d="M428.482,406.304 421.902,405.517 428.482,405.517 z"
   id="path304" />
<path
   d="M428.482,407.485 428.482,406.304 429.269,407.327 z"
   id="path305" />
<path
   d="M429.269,407.327 428.482,406.304 429.269,406.304 z"
   id="path306" />
<path
   d="M428.482,405.517 428.482,404.337 429.269,405.517 z"
   id="path307" />
<path
   d="M429.269,405.517 428.482,404.337 429.269,404.494 z"
   id="path308" />
<path
   d="M429.269,407.327 429.269,404.494 436.352,405.911 z"
   id="path309" />
<path
   d="M411.214,420.754 410.034,414.851 411.214,414.851 z"
   id="path310" />
<path
   d="M411.214,420.754 411.214,415.638 411.608,422.721 z"
   id="path311" />
<path
   d="M411.608,422.721 411.214,415.638 411.608,415.638 z"
   id="path312" />
<path
   d="M411.214,414.851 411.214,408.272 411.608,414.851 z"
   id="path313" />
<path
   d="M411.608,414.851 411.214,408.272 411.608,408.272 z"
   id="path314" />
<path
   d="M411.608,422.721 411.608,415.638 412.001,420.754 z"
   id="path315" />
<path
   d="M412.001,420.754 411.608,415.638 412.001,415.638 z"
   id="path316" />
<path
   d="M411.608,414.851 411.608,408.272 412.001,414.851 z"
   id="path317" />
<path
   d="M412.001,414.851 411.608,408.272 412.001,408.272 z"
   id="path318" />
<path
   d="M412.001,420.754 412.001,414.851 413.182,414.851 z"
   id="path319" />
<path
   d="M401.581,529.929 400.401,524.027 401.581,524.027 z"
   id="path320" />
<path
   d="M401.581,529.929 401.581,524.814 401.975,531.897 z"
   id="path321" />
<path
   d="M401.975,531.897 401.581,524.814 401.975,524.814 z"
   id="path322" />
<path
   d="M401.581,524.027 401.581,517.353 401.975,524.027 z"
   id="path323" />
<path
   d="M401.975,524.027 401.581,517.353 401.975,517.353 z"
   id="path324" />
<path
   d="M401.975,531.897 401.975,524.814 402.368,529.929 z"
   id="path325" />
<path
   d="M402.368,529.929 401.975,524.814 402.368,524.814 z"
   id="path326" />
<path
   d="M401.975,524.027 401.975,517.353 402.368,524.027 z"
   id="path327" />
<path
   d="M402.368,524.027 401.975,517.353 402.368,517.353 z"
   id="path328" />
<path
   d="M402.368,529.929 402.368,524.027 403.549,524.027 z"
   id="path329" />
</g>
<g
   clip-path="url(#clipId0)"
   fill="rgb(38,38,38)"
   stroke="rgb(38,38,38)"
   stroke-width="0"
   id="g330">
<text
   transform="matrix(5.61349 0 -0 5.61111 198.306 369.039)"
   font-family="Arial,'sans-serif'"
   font-size="1.39636"
   id="text329">AUX. BOILER</text>
</g>
<g
   clip-path="url(#clipId0)"
   fill="rgb(64,64,64)"
   stroke="rgb(64,64,64)"
   stroke-width="1"
   id="g366">
<path
   d="M363.238,395.916 362.057,390.013 363.238,390.013 z"
   id="path330" />
<path
   d="M363.238,395.916 363.238,390.8 363.631,397.883 z"
   id="path331" />
<path
   d="M363.631,397.883 363.238,390.8 363.631,390.8 z"
   id="path332" />
<path
   d="M363.238,390.013 363.238,383.433 363.631,390.013 z"
   id="path333" />
<path
   d="M363.631,390.013 363.238,383.433 363.631,383.433 z"
   id="path334" />
<path
   d="M363.631,397.883 363.631,390.8 364.025,395.916 z"
   id="path335" />
<path
   d="M364.025,395.916 363.631,390.8 364.025,390.8 z"
   id="path336" />
<path
   d="M363.631,390.013 363.631,383.433 364.025,390.013 z"
   id="path337" />
<path
   d="M364.025,390.013 363.631,383.433 364.025,383.433 z"
   id="path338" />
<path
   d="M364.025,395.916 364.025,390.013 365.205,390.013 z"
   id="path339" />
<path
   d="M634.665,457.397 633.484,451.495 634.665,451.495 z"
   id="path340" />
<path
   d="M634.665,457.397 634.665,452.282 635.058,459.365 z"
   id="path341" />
<path
   d="M635.058,459.365 634.665,452.282 635.058,452.282 z"
   id="path342" />
<path
   d="M634.665,451.495 634.665,444.821 635.058,451.495 z"
   id="path343" />
<path
   d="M635.058,451.495 634.665,444.821 635.058,444.821 z"
   id="path344" />
<path
   d="M635.058,459.365 635.058,452.282 635.452,457.397 z"
   id="path345" />
<path
   d="M635.452,457.397 635.058,452.282 635.452,452.282 z"
   id="path346" />
<path
   d="M635.058,451.495 635.058,444.821 635.452,451.495 z"
   id="path347" />
<path
   d="M635.452,451.495 635.058,444.821 635.452,444.821 z"
   id="path348" />
<path
   d="M635.452,457.397 635.452,451.495 636.632,451.495 z"
   id="path349" />
<path
   d="M296.86,378.05 289.777,376.634 296.86,375.217 z"
   id="path350" />
<path
   d="M296.86,378.05 296.86,377.027 297.647,378.208 z"
   id="path351" />
<path
   d="M297.647,378.208 296.86,377.027 297.647,377.027 z"
   id="path352" />
<path
   d="M296.86,376.24 296.86,375.217 297.647,376.24 z"
   id="path353" />
<path
   d="M297.647,376.24 296.86,375.217 297.647,375.06 z"
   id="path354" />
<path
   d="M297.647,377.027 297.647,376.24 304.227,377.027 z"
   id="path355" />
<path
   d="M304.227,377.027 297.647,376.24 304.227,376.24 z"
   id="path356" />
<path
   d="M616.532,531.157 615.351,525.254 616.532,525.254 z"
   id="path357" />
<path
   d="M616.532,531.157 616.532,526.041 616.925,533.124 z"
   id="path358" />
<path
   d="M616.925,533.124 616.532,526.041 616.925,526.041 z"
   id="path359" />
<path
   d="M616.532,525.254 616.532,522.452 616.925,525.254 z"
   id="path360" />
<path
   d="M616.925,525.254 616.532,522.452 616.925,522.452 z"
   id="path361" />
<path
   d="M616.925,533.124 616.925,526.041 617.319,531.157 z"
   id="path362" />
<path
   d="M617.319,531.157 616.925,526.041 617.319,526.041 z"
   id="path363" />
<path
   d="M616.925,525.254 616.925,522.452 617.319,525.254 z"
   id="path364" />
<path
   d="M617.319,525.254 616.925,522.452 617.319,522.452 z"
   id="path365" />
<path
   d="M617.319,531.157 617.319,525.254 618.499,525.254 z"
   id="path366" />
</g>
<g
   clip-path="url(#clipId0)"
   fill="none"
   stroke="rgb(64,64,64)"
   stroke-width="0.35"
   id="g367">
<polyline
   points="287.322,357.651 287.322,362.089 "
   id="polyline366" />
<polyline
   points="313.199,357.651 313.199,362.089 "
   id="polyline367" />
</g>
<g
   clip-path="url(#clipId0)"
   fill="rgb(217,217,217)"
   stroke="rgb(217,217,217)"
   stroke-width="0.25"
   fill-opacity="0.498039"
   stroke-opacity="0.498039"
   id="g368">
<path
   d="M287.794,360.484 312.821,360.484 312.821,357.367 287.794,357.367 z"
   id="path367" />
</g>
<g
   clip-path="url(#clipId0)"
   fill="none"
   stroke="rgb(64,64,64)"
   stroke-width="0.35"
   id="g369">
<polyline
   points="342.759,357.651 342.759,362.089 "
   id="polyline368" />
<polyline
   points="368.542,357.651 368.542,362.089 "
   id="polyline369" />
</g>
<g
   clip-path="url(#clipId0)"
   fill="rgb(217,217,217)"
   stroke="rgb(217,217,217)"
   stroke-width="0.25"
   fill-opacity="0.498039"
   stroke-opacity="0.498039"
   id="g370">
<path
   d="M343.137,360.484 368.164,360.484 368.164,357.367 343.137,357.367 z"
   id="path369" />
</g>
<g
   clip-path="url(#clipId0)"
   fill="none"
   stroke="rgb(64,64,64)"
   stroke-width="0.35"
   id="g371">
<polyline
   points="655.363,357.651 655.363,362.089 "
   id="polyline370" />
<polyline
   points="681.146,357.651 681.146,362.089 "
   id="polyline371" />
</g>
<g
   clip-path="url(#clipId0)"
   fill="rgb(217,217,217)"
   stroke="rgb(217,217,217)"
   stroke-width="0.25"
   fill-opacity="0.498039"
   stroke-opacity="0.498039"
   id="g372">
<path
   d="M655.741,360.484 680.768,360.484 680.768,357.367 655.741,357.367 z"
   id="path371" />
</g>
<g
   clip-path="url(#clipId0)"
   fill="none"
   stroke="rgb(64,64,64)"
   stroke-width="0.35"
   id="g373">
<polyline
   points="710.707,357.651 710.707,362.089 "
   id="polyline372" />
<polyline
   points="736.584,357.651 736.584,362.089 "
   id="polyline373" />
</g>
<g
   clip-path="url(#clipId0)"
   fill="rgb(217,217,217)"
   stroke="rgb(217,217,217)"
   stroke-width="0.25"
   fill-opacity="0.498039"
   stroke-opacity="0.498039"
   id="g374">
<path
   d="M711.179,360.484 736.206,360.484 736.206,357.367 711.179,357.367 z"
   id="path373" />
</g>
<g
   clip-path="url(#clipId0)"
   fill="none"
   stroke="rgb(64,64,64)"
   stroke-width="0.35"
   id="g378">
<polyline
   points="443.34,179.249 574.993,179.249 "
   id="polyline374" />
<polyline
   points="443.34,360.012 574.993,360.012 "
   id="polyline375" />
<polyline
   points="429.174,244.698 588.782,244.698 "
   id="polyline376" />
<polyline
   points="429.174,296.83 589.254,296.83 "
   id="polyline377" />
<polyline
   points="194.202,561.174 823.754,561.174 "
   id="polyline378" />
<image
   width="1"
   height="1"
   xlink:href="ESS_Hapag%20Lloyd_RHL%20C_Class_HMI%20Design_ER%20VENT_2407093400fc3466424028a37d125d9b1dc1f1.PNG"
   preserveAspectRatio="none"
   transform="matrix(157.152 0 -0 158.096 430.402 433.016)"
   id="image378" />
</g>
<g
   clip-path="url(#clipId0)"
   fill="none"
   stroke="rgb(0,0,0)"
   stroke-width="0.25"
   id="g379">
<polyline
   points="430.402,591.112 587.554,591.112 587.554,433.016 430.402,433.016 430.402,591.112 "
   id="polyline379" />
</g>
<g
   clip-path="url(#clipId0)"
   fill="none"
   stroke="rgb(0,0,0)"
   stroke-width="0.35"
   id="g383">
<polyline
   points="273.533,354.629 321.132,354.629 321.132,254.897 273.533,254.897 273.533,354.629 "
   id="polyline380" />
<polyline
   points="327.365,354.062 374.87,354.062 374.87,254.331 327.365,254.331 327.365,354.062 "
   id="polyline381" />
<polyline
   points="643.18,353.59 690.685,353.59 690.685,252.442 643.18,252.442 643.18,353.59 "
   id="polyline382" />
<polyline
   points="696.918,353.023 744.517,353.023 744.517,252.82 696.918,252.82 696.918,353.023 "
   id="polyline383" />
</g>
<g
   clip-path="url(#clipId0)"
   fill="rgb(217,217,217)"
   stroke="rgb(217,217,217)"
   stroke-width="0.25"
   fill-opacity="0.498039"
   stroke-opacity="0.498039"
   id="g386">
<path
   d="M273.344,254.614 321.415,254.614 321.415,244.32 273.344,244.32 z"
   id="Fan4_hour" />
<path
   d="M326.988,254.236 375.153,254.236 375.153,243.942 326.988,243.942 z"
   id="Fan3_hour" />
<path
   d="M642.897,252.253 690.874,252.253 690.874,241.959 642.897,241.959 z"
   id="Fan2_hour" />
<path
   d="m 696.54,252.347 h 48.071 V 242.053 H 696.54 Z"
   id="Fan1_hour"
   sodipodi:nodetypes="ccccc" />
</g>
<g
   clip-path="url(#clipId0)"
   fill="rgb(255,255,255)"
   stroke="rgb(255,255,255)"
   stroke-width="0.25"
   fill-opacity="0.498039"
   stroke-opacity="0.498039"
   id="g387">
<path
   d="M285.811,272.464 309.421,272.464 309.421,263.019 285.811,263.019 z"
   id="path387" />
</g>
<g
   clip-path="url(#clipId0)"
   fill="none"
   stroke="rgb(255,255,255)"
   stroke-width="0.35"
   id="g388">
<polyline
   points="285.811,272.464 309.421,272.464 309.421,263.019 285.811,263.019 285.811,272.464 "
   id="polyline387" />
</g>
<g
   clip-path="url(#clipId0)"
   fill="rgb(255,255,255)"
   stroke="rgb(255,255,255)"
   stroke-width="0.25"
   fill-opacity="0.498039"
   stroke-opacity="0.498039"
   id="g389">
<path
   d="M340.871,272.464 364.576,272.464 364.576,263.019 340.871,263.019 z"
   id="path388" />
</g>
<g
   clip-path="url(#clipId0)"
   fill="none"
   stroke="rgb(255,255,255)"
   stroke-width="0.35"
   id="g390">
<polyline
   points="340.871,272.464 364.576,272.464 364.576,263.019 340.871,263.019 340.871,272.464 "
   id="polyline389" />
</g>
<g
   clip-path="url(#clipId0)"
   fill="rgb(255,255,255)"
   stroke="rgb(255,255,255)"
   stroke-width="0.25"
   fill-opacity="0.498039"
   stroke-opacity="0.498039"
   id="g391">
<path
   d="M655.363,272.464 678.974,272.464 678.974,263.019 655.363,263.019 z"
   id="path390" />
</g>
<g
   clip-path="url(#clipId0)"
   fill="none"
   stroke="rgb(255,255,255)"
   stroke-width="0.35"
   id="g392">
<polyline
   points="655.363,272.464 678.974,272.464 678.974,263.019 655.363,263.019 655.363,272.464 "
   id="polyline391" />
</g>
<g
   clip-path="url(#clipId0)"
   fill="rgb(255,255,255)"
   stroke="rgb(255,255,255)"
   stroke-width="0.25"
   fill-opacity="0.498039"
   stroke-opacity="0.498039"
   id="g393">
<path
   d="M709.196,272.464 732.806,272.464 732.806,263.019 709.196,263.019 z"
   id="path392" />
</g>
<g
   clip-path="url(#clipId0)"
   fill="none"
   stroke="rgb(255,255,255)"
   stroke-width="0.35"
   id="g394">
<polyline
   points="709.196,272.464 732.806,272.464 732.806,263.019 709.196,263.019 709.196,272.464 "
   id="polyline393" />
</g>
<g
   clip-path="url(#clipId0)"
   fill="rgb(0,0,102)"
   stroke="rgb(0,0,102)"
   stroke-width="0"
   id="g395">
<text
   transform="matrix(15.6361 0 -0 15.6227 397.551 108.454)"
   font-family="Bahnschrift,'sans-serif'"
   font-size="1.4081"
   id="text394">E/R VENTILATION SYSTEM</text>
</g>
<g
   clip-path="url(#clipId0)"
   fill="rgb(231,230,230)"
   stroke="rgb(231,230,230)"
   stroke-width="1"
   id="g404">
<path
   d="M650.452,324.564 650.452,316.883 651.014,325.923 z"
   id="path395" />
<path
   d="M651.014,325.923 650.452,316.883 651.014,315.524 z"
   id="path396" />
<path
   d="M651.014,325.923 651.014,315.524 652.373,326.485 z"
   id="path397" />
<path
   d="M652.373,326.485 651.014,315.524 652.373,314.963 z"
   id="path398" />
<path
   d="M652.373,326.485 652.373,314.963 680.926,326.485 z"
   id="path399" />
<path
   d="M680.926,326.485 652.373,314.963 680.926,314.963 z"
   id="path400" />
<path
   d="M680.926,326.485 680.926,314.963 682.284,325.923 z"
   id="path401" />
<path
   d="M682.284,325.923 680.926,314.963 682.284,315.524 z"
   id="path402" />
<path
   d="M682.284,325.923 682.284,315.524 682.846,324.564 z"
   id="path403" />
<path
   d="M682.846,324.564 682.284,315.524 682.846,316.883 z"
   id="path404" />
</g>
<g
   clip-path="url(#clipId0)"
   fill="none"
   stroke="rgb(23,44,81)"
   stroke-width="0.09"
   id="FAN2_Mode">
<polyline
   points="650.452,316.883 651.014,315.524 652.373,314.963 "
   id="polyline404" />
<polyline
   points="652.373,314.963 680.926,314.963 "
   id="polyline405" />
<polyline
   points="680.926,314.963 682.284,315.524 682.846,316.883 "
   id="polyline406" />
<polyline
   points="682.846,316.883 682.846,324.564 "
   id="polyline407" />
<polyline
   points="682.846,324.564 682.284,325.923 680.926,326.485 "
   id="polyline408" />
<polyline
   points="680.926,326.485 652.373,326.485 "
   id="polyline409" />
<polyline
   points="652.373,326.485 651.014,325.923 650.452,324.564 "
   id="polyline410" />
<polyline
   points="650.452,324.564 650.452,316.883 "
   id="polyline411" />
</g>
<g
   clip-path="url(#clipId0)"
   fill="rgb(0,0,0)"
   stroke="rgb(0,0,0)"
   stroke-width="0"
   id="g412">
<text
   transform="matrix(5.27611 0 -0 5.28748 658.05 323.539)"
   font-family="Calibri,'sans-serif'"
   font-size="1.57532"
   id="text411">MAN</text>
</g>
<g
   clip-path="url(#clipId0)"
   fill="rgb(231,230,230)"
   stroke="rgb(231,230,230)"
   stroke-width="1"
   id="g421">
<path
   d="M706.079,324.564 706.079,316.883 706.641,325.923 z"
   id="path412" />
<path
   d="M706.641,325.923 706.079,316.883 706.641,315.524 z"
   id="path413" />
<path
   d="M706.641,325.923 706.641,315.524 707.999,326.485 z"
   id="path414" />
<path
   d="M707.999,326.485 706.641,315.524 707.999,314.963 z"
   id="path415" />
<path
   d="M707.999,326.485 707.999,314.963 736.458,326.485 z"
   id="path416" />
<path
   d="M736.458,326.485 707.999,314.963 736.458,314.963 z"
   id="path417" />
<path
   d="M736.458,326.485 736.458,314.963 737.816,325.923 z"
   id="path418" />
<path
   d="M737.816,325.923 736.458,314.963 737.816,315.524 z"
   id="path419" />
<path
   d="M737.816,325.923 737.816,315.524 738.378,324.564 z"
   id="path420" />
<path
   d="M738.378,324.564 737.816,315.524 738.378,316.883 z"
   id="path421" />
</g>
<g
   clip-path="url(#clipId0)"
   fill="none"
   stroke="rgb(23,44,81)"
   stroke-width="0.09"
   id="FAN1_Mode">
<polyline
   points="706.079,316.883 706.641,315.524 707.999,314.963 "
   id="polyline421" />
<polyline
   points="707.999,314.963 736.458,314.963 "
   id="polyline422" />
<polyline
   points="736.458,314.963 737.816,315.524 738.378,316.883 "
   id="polyline423" />
<polyline
   points="738.378,316.883 738.378,324.564 "
   id="polyline424" />
<polyline
   points="738.378,324.564 737.816,325.923 736.458,326.485 "
   id="polyline425" />
<polyline
   points="736.458,326.485 707.999,326.485 "
   id="polyline426" />
<polyline
   points="707.999,326.485 706.641,325.923 706.079,324.564 "
   id="polyline427" />
<polyline
   points="706.079,324.564 706.079,316.883 "
   id="polyline428" />
</g>
<g
   clip-path="url(#clipId0)"
   fill="rgb(0,0,0)"
   stroke="rgb(0,0,0)"
   stroke-width="0"
   id="g429">
<text
   transform="matrix(5.27611 0 -0 5.28748 713.598 323.539)"
   font-family="Calibri,'sans-serif'"
   font-size="1.57532"
   id="text428">MAN</text>
</g>
<g
   clip-path="url(#clipId0)"
   fill="rgb(237,237,237)"
   stroke="rgb(237,237,237)"
   stroke-width="0.25"
   fill-opacity="0.498039"
   stroke-opacity="0.498039"
   id="ME_Load">
<path
   d="M488.389,428.482 515.4,428.482 515.4,411.294 488.389,411.294 z"
   id="path429" />
</g>
<g
   clip-path="url(#clipId0)"
   fill="rgb(38,38,38)"
   stroke="rgb(38,38,38)"
   stroke-width="0"
   id="g431">
<text
   transform="matrix(4.51442 0 -0 4.52945 487.555 406.478)"
   font-family="Arial,'sans-serif'"
   font-size="1.39636"
   id="text430">M/E</text>
<text
   transform="matrix(4.5257 0 -0 4.52945 500.496 406.478)"
   font-family="Arial,'sans-serif'"
   font-size="1.39636"
   id="text431">LOAD</text>
</g>
<g
   clip-path="url(#clipId0)"
   fill="rgb(231,230,230)"
   stroke="rgb(231,230,230)"
   stroke-width="1"
   id="g440">
<path
   d="M280.711,324.564 280.711,316.883 281.273,325.923 z"
   id="path431" />
<path
   d="M281.273,325.923 280.711,316.883 281.273,315.524 z"
   id="path432" />
<path
   d="M281.273,325.923 281.273,315.524 282.631,326.485 z"
   id="path433" />
<path
   d="M282.631,326.485 281.273,315.524 282.631,314.963 z"
   id="path434" />
<path
   d="M282.631,326.485 282.631,314.963 311.09,326.485 z"
   id="path435" />
<path
   d="M311.09,326.485 282.631,314.963 311.09,314.963 z"
   id="path436" />
<path
   d="M311.09,326.485 311.09,314.963 312.448,325.923 z"
   id="path437" />
<path
   d="M312.448,325.923 311.09,314.963 312.448,315.524 z"
   id="path438" />
<path
   d="M312.448,325.923 312.448,315.524 313.01,324.564 z"
   id="path439" />
<path
   d="M313.01,324.564 312.448,315.524 313.01,316.883 z"
   id="path440" />
</g>
<g
   clip-path="url(#clipId0)"
   fill="none"
   stroke="rgb(23,44,81)"
   stroke-width="0.09"
   id="FAN4_Mode">
<polyline
   points="280.711,316.883 281.273,315.524 282.631,314.963 "
   id="polyline440" />
<polyline
   points="282.631,314.963 311.09,314.963 "
   id="polyline441" />
<polyline
   points="311.09,314.963 312.448,315.524 313.01,316.883 "
   id="polyline442" />
<polyline
   points="313.01,316.883 313.01,324.564 "
   id="polyline443" />
<polyline
   points="313.01,324.564 312.448,325.923 311.09,326.485 "
   id="polyline444" />
<polyline
   points="311.09,326.485 282.631,326.485 "
   id="polyline445" />
<polyline
   points="282.631,326.485 281.273,325.923 280.711,324.564 "
   id="polyline446" />
<polyline
   points="280.711,324.564 280.711,316.883 "
   id="polyline447" />
</g>
<g
   clip-path="url(#clipId0)"
   fill="rgb(0,0,0)"
   stroke="rgb(0,0,0)"
   stroke-width="0"
   id="g448">
<text
   transform="matrix(5.27611 0 -0 5.28748 288.23 323.539)"
   font-family="Calibri,'sans-serif'"
   font-size="1.57532"
   id="text447">MAN</text>
</g>
<g
   clip-path="url(#clipId0)"
   fill="rgb(231,230,230)"
   stroke="rgb(231,230,230)"
   stroke-width="1"
   id="g457">
<path
   d="M335.298,324.564 335.298,316.883 335.86,325.923 z"
   id="path448" />
<path
   d="M335.86,325.923 335.298,316.883 335.86,315.524 z"
   id="path449" />
<path
   d="M335.86,325.923 335.86,315.524 337.219,326.485 z"
   id="path450" />
<path
   d="M337.219,326.485 335.86,315.524 337.219,314.963 z"
   id="path451" />
<path
   d="M337.219,326.485 337.219,314.963 365.677,326.485 z"
   id="path452" />
<path
   d="M365.677,326.485 337.219,314.963 365.677,314.963 z"
   id="path453" />
<path
   d="M365.677,326.485 365.677,314.963 367.036,325.923 z"
   id="path454" />
<path
   d="M367.036,325.923 365.677,314.963 367.036,315.524 z"
   id="path455" />
<path
   d="M367.036,325.923 367.036,315.524 367.598,324.564 z"
   id="path456" />
<path
   d="M367.598,324.564 367.036,315.524 367.598,316.883 z"
   id="path457" />
</g>
<g
   clip-path="url(#clipId0)"
   fill="none"
   stroke="rgb(23,44,81)"
   stroke-width="0.09"
   id="FAN3_Mode">
<polyline
   points="335.298,316.883 335.86,315.524 337.219,314.963 "
   id="polyline457" />
<polyline
   points="337.219,314.963 365.677,314.963 "
   id="polyline458" />
<polyline
   points="365.677,314.963 367.036,315.524 367.598,316.883 "
   id="polyline459" />
<polyline
   points="367.598,316.883 367.598,324.564 "
   id="polyline460" />
<polyline
   points="367.598,324.564 367.036,325.923 365.677,326.485 "
   id="polyline461" />
<polyline
   points="365.677,326.485 337.219,326.485 "
   id="polyline462" />
<polyline
   points="337.219,326.485 335.86,325.923 335.298,324.564 "
   id="polyline463" />
<polyline
   points="335.298,324.564 335.298,316.883 "
   id="polyline464" />
</g>
<g
   clip-path="url(#clipId0)"
   fill="rgb(0,0,0)"
   stroke="rgb(0,0,0)"
   stroke-width="0"
   id="g465">
<text
   transform="matrix(5.27611 0 -0 5.28748 342.841 323.539)"
   font-family="Calibri,'sans-serif'"
   font-size="1.57532"
   id="text464">MAN</text>
</g>
<g
   clip-path="url(#clipId0)"
   fill="rgb(255,255,255)"
   stroke="rgb(255,255,255)"
   stroke-width="0.25"
   fill-opacity="0.498039"
   stroke-opacity="0.498039"
   id="g466">
<path
   d="M460.812,315.624 491.884,315.624 491.884,303.63 460.812,303.63 z"
   id="path465" />
</g>
<g
   clip-path="url(#clipId0)"
   fill="none"
   stroke="rgb(255,255,255)"
   stroke-width="0.35"
   id="TX6">
<polyline
   points="460.812,315.624 491.884,315.624 491.884,303.63 460.812,303.63 460.812,315.624 "
   id="polyline466" />
</g>
<g
   clip-path="url(#clipId0)"
   fill="rgb(255,255,255)"
   stroke="rgb(255,255,255)"
   stroke-width="0.25"
   fill-opacity="0.498039"
   stroke-opacity="0.498039"
   id="g468">
<path
   d="M460.812,263.775 491.884,263.775 491.884,251.781 460.812,251.781 z"
   id="path467" />
</g>
<g
   clip-path="url(#clipId0)"
   fill="none"
   stroke="rgb(255,255,255)"
   stroke-width="0.35"
   id="DPX2">
<polyline
   points="460.812,263.775 491.884,263.775 491.884,251.781 460.812,251.781 460.812,263.775 "
   id="polyline468" />
</g>
<g
   clip-path="url(#clipId0)"
   fill="rgb(255,255,255)"
   stroke="rgb(255,255,255)"
   stroke-width="0.25"
   fill-opacity="0.498039"
   stroke-opacity="0.498039"
   id="g470">
<path
   d="M389.508,296.83 420.485,296.83 420.485,284.93 389.508,284.93 z"
   id="path469" />
</g>
<g
   clip-path="url(#clipId0)"
   fill="none"
   stroke="rgb(255,255,255)"
   stroke-width="0.35"
   id="TX7">
<polyline
   points="389.508,296.83 420.485,296.83 420.485,284.93 389.508,284.93 389.508,296.83 "
   id="polyline470" />
</g>
<g
   clip-path="url(#clipId0)"
   fill="rgb(204,236,255)"
   stroke="rgb(204,236,255)"
   stroke-width="1"
   id="g480">
<path
   d="M279.578,346.129 279.578,333.662 280.489,348.333 z"
   id="path471" />
<path
   d="M280.489,348.333 279.578,333.662 280.489,331.458 z"
   id="path472" />
<path
   d="M280.489,348.333 280.489,331.458 282.694,349.245 z"
   id="path473" />
<path
   d="M282.694,349.245 280.489,331.458 282.694,330.546 z"
   id="path474" />
<path
   d="M282.694,349.245 282.694,330.546 311.877,349.245 z"
   id="path475" />
<path
   d="M311.877,349.245 282.694,330.546 311.877,330.546 z"
   id="path476" />
<path
   d="M311.877,349.245 311.877,330.546 314.081,348.333 z"
   id="path477" />
<path
   d="M314.081,348.333 311.877,330.546 314.081,331.458 z"
   id="path478" />
<path
   d="M314.081,348.333 314.081,331.458 314.993,346.129 z"
   id="path479" />
<path
   d="M314.993,346.129 314.081,331.458 314.993,333.662 z"
   id="path480" />
</g>
<g
   clip-path="url(#clipId0)"
   fill="none"
   stroke="rgb(23,44,81)"
   stroke-width="0.09"
   id="g487">
<polyline
   points="279.578,333.662 280.489,331.458 282.694,330.546 "
   id="polyline480" />
<polyline
   points="282.694,330.546 311.877,330.546 "
   id="polyline481" />
<polyline
   points="311.877,330.546 314.081,331.458 314.993,333.662 "
   id="polyline482" />
<polyline
   points="314.993,333.662 314.993,346.129 "
   id="polyline483" />
<polyline
   points="314.993,346.129 314.081,348.333 311.877,349.245 "
   id="polyline484" />
<polyline
   points="311.877,349.245 282.694,349.245 "
   id="polyline485" />
<polyline
   points="282.694,349.245 280.489,348.333 279.578,346.129 "
   id="polyline486" />
<polyline
   points="279.578,346.129 279.578,333.662 "
   id="polyline487" />
</g>
<g
   clip-path="url(#clipId0)"
   fill="rgb(0,0,0)"
   stroke="rgb(0,0,0)"
   stroke-width="0"
   id="g488">
<text
   transform="matrix(4.49152 0 -0 4.49615 288.832 338.021)"
   font-family="Calibri,'sans-serif'"
   font-size="1.57532"
   id="Fan4_Auto">AUTO</text>
<text
   transform="matrix(4.46296 0 -0 4.49615 286.662 346.52)"
   font-family="Calibri,'sans-serif'"
   font-size="1.57532"
   id="Fan4_Hz">50.3 Hz</text>
</g>
<g
   clip-path="url(#clipId0)"
   fill="rgb(204,236,255)"
   stroke="rgb(204,236,255)"
   stroke-width="1"
   id="g497">
<path
   d="M333.882,346.129 333.882,333.662 334.794,348.333 z"
   id="path488" />
<path
   d="M334.794,348.333 333.882,333.662 334.794,331.458 z"
   id="path489" />
<path
   d="M334.794,348.333 334.794,331.458 336.998,349.245 z"
   id="path490" />
<path
   d="M336.998,349.245 334.794,331.458 336.998,330.546 z"
   id="path491" />
<path
   d="M336.998,349.245 336.998,330.546 366.181,349.245 z"
   id="path492" />
<path
   d="M366.181,349.245 336.998,330.546 366.181,330.546 z"
   id="path493" />
<path
   d="M366.181,349.245 366.181,330.546 368.386,348.333 z"
   id="path494" />
<path
   d="M368.386,348.333 366.181,330.546 368.386,331.458 z"
   id="path495" />
<path
   d="M368.386,348.333 368.386,331.458 369.298,346.129 z"
   id="path496" />
<path
   d="M369.298,346.129 368.386,331.458 369.298,333.662 z"
   id="path497" />
</g>
<g
   clip-path="url(#clipId0)"
   fill="none"
   stroke="rgb(23,44,81)"
   stroke-width="0.09"
   id="g504">
<polyline
   points="333.882,333.662 334.794,331.458 336.998,330.546 "
   id="polyline497" />
<polyline
   points="336.998,330.546 366.181,330.546 "
   id="polyline498" />
<polyline
   points="366.181,330.546 368.386,331.458 369.298,333.662 "
   id="polyline499" />
<polyline
   points="369.298,333.662 369.298,346.129 "
   id="polyline500" />
<polyline
   points="369.298,346.129 368.386,348.333 366.181,349.245 "
   id="polyline501" />
<polyline
   points="366.181,349.245 336.998,349.245 "
   id="polyline502" />
<polyline
   points="336.998,349.245 334.794,348.333 333.882,346.129 "
   id="polyline503" />
<polyline
   points="333.882,346.129 333.882,333.662 "
   id="polyline504" />
</g>
<g
   clip-path="url(#clipId0)"
   fill="rgb(0,0,0)"
   stroke="rgb(0,0,0)"
   stroke-width="0"
   id="g505">
<text
   transform="matrix(4.49152 0 -0 4.49615 343.136 338.021)"
   font-family="Calibri,'sans-serif'"
   font-size="1.57532"
   id="Fan3_Auto">AUTO</text>
<text
   transform="matrix(4.46296 0 -0 4.49615 340.966 346.52)"
   font-family="Calibri,'sans-serif'"
   font-size="1.57532"
   id="Fan3_Hz">50.3 Hz</text>
</g>
<g
   clip-path="url(#clipId0)"
   fill="rgb(204,236,255)"
   stroke="rgb(204,236,255)"
   stroke-width="1"
   id="g514">
<path
   d="M648.941,346.129 648.941,333.662 649.853,348.333 z"
   id="path505" />
<path
   d="M649.853,348.333 648.941,333.662 649.853,331.458 z"
   id="path506" />
<path
   d="M649.853,348.333 649.853,331.458 652.058,349.245 z"
   id="path507" />
<path
   d="M652.058,349.245 649.853,331.458 652.058,330.546 z"
   id="path508" />
<path
   d="M652.058,349.245 652.058,330.546 681.241,349.245 z"
   id="path509" />
<path
   d="M681.241,349.245 652.058,330.546 681.241,330.546 z"
   id="path510" />
<path
   d="M681.241,349.245 681.241,330.546 683.445,348.333 z"
   id="path511" />
<path
   d="M683.445,348.333 681.241,330.546 683.445,331.458 z"
   id="path512" />
<path
   d="M683.445,348.333 683.445,331.458 684.357,346.129 z"
   id="path513" />
<path
   d="M684.357,346.129 683.445,331.458 684.357,333.662 z"
   id="path514" />
</g>
<g
   clip-path="url(#clipId0)"
   fill="none"
   stroke="rgb(23,44,81)"
   stroke-width="0.09"
   id="g521">
<polyline
   points="648.941,333.662 649.853,331.458 652.058,330.546 "
   id="polyline514" />
<polyline
   points="652.058,330.546 681.241,330.546 "
   id="polyline515" />
<polyline
   points="681.241,330.546 683.445,331.458 684.357,333.662 "
   id="polyline516" />
<polyline
   points="684.357,333.662 684.357,346.129 "
   id="polyline517" />
<polyline
   points="684.357,346.129 683.445,348.333 681.241,349.245 "
   id="polyline518" />
<polyline
   points="681.241,349.245 652.058,349.245 "
   id="polyline519" />
<polyline
   points="652.058,349.245 649.853,348.333 648.941,346.129 "
   id="polyline520" />
<polyline
   points="648.941,346.129 648.941,333.662 "
   id="polyline521" />
</g>
<g
   clip-path="url(#clipId0)"
   fill="rgb(0,0,0)"
   stroke="rgb(0,0,0)"
   stroke-width="0"
   id="g522">
<text
   transform="matrix(4.49152 0 -0 4.49615 658.235 338.021)"
   font-family="Calibri,'sans-serif'"
   font-size="1.57532"
   id="Fan2_Auto">AUTO</text>
<text
   transform="scale(0.99630223,1.0037115)"
   font-family="Calibri, sans-serif"
   font-size="7.05668px"
   id="Fan2_Hz"
   x="658.50043"
   y="345.13864"
   style="stroke-width:0">50.3 Hz</text>
</g>
<g
   clip-path="url(#clipId0)"
   fill="rgb(204,236,255)"
   stroke="rgb(204,236,255)"
   stroke-width="1"
   id="g531">
<path
   d="M704.473,346.129 704.473,333.662 705.385,348.333 z"
   id="path522" />
<path
   d="M705.385,348.333 704.473,333.662 705.385,331.458 z"
   id="path523" />
<path
   d="M705.385,348.333 705.385,331.458 707.59,349.245 z"
   id="path524" />
<path
   d="M707.59,349.245 705.385,331.458 707.59,330.546 z"
   id="path525" />
<path
   d="M707.59,349.245 707.59,330.546 736.773,349.245 z"
   id="path526" />
<path
   d="M736.773,349.245 707.59,330.546 736.773,330.546 z"
   id="path527" />
<path
   d="M736.773,349.245 736.773,330.546 738.977,348.333 z"
   id="path528" />
<path
   d="M738.977,348.333 736.773,330.546 738.977,331.458 z"
   id="path529" />
<path
   d="M738.977,348.333 738.977,331.458 739.889,346.129 z"
   id="path530" />
<path
   d="M739.889,346.129 738.977,331.458 739.889,333.662 z"
   id="path531" />
</g>
<g
   clip-path="url(#clipId0)"
   fill="none"
   stroke="rgb(23,44,81)"
   stroke-width="0.09"
   id="g538">
<polyline
   points="704.473,333.662 705.385,331.458 707.59,330.546 "
   id="polyline531" />
<polyline
   points="707.59,330.546 736.773,330.546 "
   id="polyline532" />
<polyline
   points="736.773,330.546 738.977,331.458 739.889,333.662 "
   id="polyline533" />
<polyline
   points="739.889,333.662 739.889,346.129 "
   id="polyline534" />
<polyline
   points="739.889,346.129 738.977,348.333 736.773,349.245 "
   id="polyline535" />
<polyline
   points="736.773,349.245 707.59,349.245 "
   id="polyline536" />
<polyline
   points="707.59,349.245 705.385,348.333 704.473,346.129 "
   id="polyline537" />
<polyline
   points="704.473,346.129 704.473,333.662 "
   id="polyline538" />
</g>
<g
   clip-path="url(#clipId0)"
   fill="rgb(0,0,0)"
   stroke="rgb(0,0,0)"
   stroke-width="0"
   id="g539">
<text
   transform="matrix(4.49152 0 -0 4.49615 713.767 338.021)"
   font-family="Calibri,'sans-serif'"
   font-size="1.57532"
   id="Fan1_Auto">AUTO</text>
<text
   transform="matrix(4.46296 0 -0 4.49615 711.597 346.52)"
   font-family="Calibri,'sans-serif'"
   font-size="1.57532"
   id="Fan1_Hz">50.3 Hz</text>
</g>


</svg>
